<svg xmlns="http://www.w3.org/2000/svg" version="1.1" xmlns:xlink="http://www.w3.org/1999/xlink" xmlns:svgjs="http://svgjs.com/svgjs" width="1440" height="560" preserveAspectRatio="none" viewBox="0 0 1440 560"><g mask="url(&quot;#SvgjsMask1071&quot;)" fill="none"><rect width="1440" height="560" x="0" y="0" fill="#0e2a47"></rect><path d="M0,512.577C129.876,538.894,257.963,641.97,381.101,593.005C503.409,544.37,562.133,400.066,599.976,274C635.029,157.227,625.042,30.908,584.329,-84.014C548.041,-186.446,447.631,-244.765,384.786,-333.419C312.792,-434.979,300.709,-588.177,188.589,-642.275C75.802,-696.694,-59.958,-647.756,-177.573,-604.757C-289.833,-563.716,-380.619,-487.536,-465.327,-403.208C-556.012,-312.93,-653.92,-222.508,-685.983,-98.629C-719.716,31.7,-723.814,185.147,-646.053,295.042C-569.823,402.773,-418.354,414.238,-293.28,456.352C-196.994,488.773,-99.574,492.4,0,512.577" fill="#091b2e"></path><path d="M1440 1026.902C1545.306 1046.699 1653.316 1085.04 1754.176 1048.867 1864.416 1009.3299999999999 1987.926 935.998 2012.653 821.5219999999999 2037.9769999999999 704.279 1918.386 608.832 1873.224 497.712 1840.876 418.121 1837.743 328.88300000000004 1784.899 261.144 1730.372 191.24900000000002 1653.798 144.856 1571.757 111.27499999999998 1482.55 74.75999999999999 1389.266 52.64499999999998 1293.145 59.85700000000003 1180.02 68.34500000000003 1059.567 81.75200000000001 973.9110000000001 156.132 883.901 234.29399999999998 838.627 353.11400000000003 819.864 470.83799999999997 800.923 589.678 793.267 726.869 867.903 821.268 941.298 914.097 1082.191 903.447 1193.555 943.475 1276.857 973.4169999999999 1353.004 1010.547 1440 1026.902" fill="#133960"></path></g><defs><mask id="SvgjsMask1071"><rect width="1440" height="560" fill="#ffffff"></rect></mask></defs></svg>