<svg xmlns="http://www.w3.org/2000/svg" version="1.1" xmlns:xlink="http://www.w3.org/1999/xlink" xmlns:svgjs="http://svgjs.com/svgjs" width="1440" height="560" preserveAspectRatio="none" viewBox="0 0 1440 560"><g mask="url(&quot;#SvgjsMask1006&quot;)" fill="none"><rect width="1440" height="560" x="0" y="0" fill="url(#SvgjsLinearGradient1007)"></rect><path d="M1095 436.25 a25.99 25.99 0 1 0 51.98 0 a25.99 25.99 0 1 0 -51.98 0z" fill="#e73635"></path><path d="M968.88 306.72 a14.82 14.82 0 1 0 29.64 0 a14.82 14.82 0 1 0 -29.64 0z" stroke="#037b0b"></path><path d="M303.53 291.96L339.27 291.96L339.27 327.7L303.53 327.7z" stroke="#d3b714"></path><path d="M1169.56 245.72a31.49 31.49 0 1 0-25.69 57.51z" stroke="#d3b714"></path><path d="M696.42 447.92a12.35 12.35 0 1 0-22.57-10.03z" stroke="#e73635"></path><path d="M660.63 32.47a53.2 53.2 0 1 0 77.72 72.66z" fill="#037b0b"></path><path d="M1209.3 475.41a34.83 34.83 0 1 0 15.55-67.9z" stroke="#d3b714"></path><path d="M104.49 5.53L111 5.53L111 31.89L104.49 31.89z" fill="#e73635"></path><path d="M704.37 6.69L748.61 6.69L748.61 50.93L704.37 50.93z" fill="#037b0b"></path><path d="M1304.54 403.55a33.41 33.41 0 1 0-32.2 58.55z" fill="#e73635"></path><path d="M273.51 125.7L329.13 125.7L329.13 127.44L273.51 127.44z" stroke="#037b0b"></path><path d="M1123.17 385.64L1132.2 385.64L1132.2 394.67L1123.17 394.67z" fill="#037b0b"></path><path d="M1236.69 252.78 a8.99 8.99 0 1 0 17.98 0 a8.99 8.99 0 1 0 -17.98 0z" fill="#037b0b"></path><path d="M378.21 261.71a32.35 32.35 0 1 0-9.33 64.03z" stroke="#037b0b"></path><path d="M1.63 401.03 a18.2 18.2 0 1 0 36.4 0 a18.2 18.2 0 1 0 -36.4 0z" stroke="#037b0b"></path><path d="M449.08 14.72L460.41 14.72L460.41 43L449.08 43z" stroke="#037b0b"></path><path d="M957.57 440.68a18.61 18.61 0 1 0 10.87 35.6z" stroke="#e73635"></path><path d="M1070.55 120.5L1113.35 120.5L1113.35 167.71L1070.55 167.71z" stroke="#d3b714"></path><path d="M315.65 62.64 a12.78 12.78 0 1 0 25.56 0 a12.78 12.78 0 1 0 -25.56 0z" stroke="#037b0b"></path><path d="M1407.89 437.6L1435.61 437.6L1435.61 465.32L1407.89 465.32z" stroke="#d3b714"></path><path d="M918.28 162.58L953.22 162.58L953.22 188.96L918.28 188.96z" stroke="#e73635"></path><path d="M1288.51 372.13L1321.11 372.13L1321.11 402.84L1288.51 402.84z" fill="#d3b714"></path><path d="M688.79 278.51L728.69 278.51L728.69 324.81L688.79 324.81z" fill="#e73635"></path><path d="M973.86 245L1009.65 245L1009.65 267.38L973.86 267.38z" stroke="#d3b714"></path><path d="M278.96 381.35a42.06 42.06 0 1 0-47.42-69.48z" stroke="#d3b714"></path><path d="M8.66 297.79L25.6 297.79L25.6 346.63L8.66 346.63z" fill="#037b0b"></path><path d="M1016.37 453.21a52.6 52.6 0 1 0 103.34 19.7z" stroke="#037b0b"></path><path d="M27.95 36.6a47.4 47.4 0 1 0 93.64-14.84z" fill="#037b0b"></path><path d="M742.74 255.92L771.8 255.92L771.8 258.02L742.74 258.02z" stroke="#d3b714"></path><path d="M1158.07 184.06 a39.87 39.87 0 1 0 79.74 0 a39.87 39.87 0 1 0 -79.74 0z" stroke="#e73635"></path><path d="M75 48.75L122 48.75L122 85.22L75 85.22z" fill="#037b0b"></path><path d="M0.91 196.48 a14.63 14.63 0 1 0 29.26 0 a14.63 14.63 0 1 0 -29.26 0z" stroke="#d3b714"></path><path d="M984.69 97.29L1016.62 97.29L1016.62 133.36L984.69 133.36z" stroke="#e73635"></path></g><defs><mask id="SvgjsMask1006"><rect width="1440" height="560" fill="#ffffff"></rect></mask><linearGradient x1="15.28%" y1="-39.29%" x2="84.72%" y2="139.29%" gradientUnits="userSpaceOnUse" id="SvgjsLinearGradient1007"><stop stop-color="#0e2a47" offset="0"></stop><stop stop-color="#00459e" offset="1"></stop></linearGradient></defs></svg>